HIERARCHY
ROOT Hips
{
	OFFSET	0.00	0.00	0.00
	CHANNELS 6 Xposition Yposition Zposition Zrotation Xrotation Yrotation
	JOINT LeftUpLeg
	{
		OFFSET	 0.126116	-0.014019	-0.065224
		CHANNELS 3 Zrotation Xrotation Yrotation
		JOINT LeftLeg
		{
			OFFSET	 0.000000	 0.000000	 0.569914
			CHANNELS 3 Zrotation Xrotation Yrotation
			JOINT LeftFoot
			{
				OFFSET	 0.000000	 0.000000	 0.544423
				CHANNELS 3 Zrotation Xrotation Yrotation
				JOINT LeftToeBase
				{
					OFFSET	 0.000000	 0.000000	 0.207117
					CHANNELS 3 Zrotation Xrotation Yrotation
					End Site
					{
						OFFSET	 0.000000	 0.000000	 0.207117
					}
				}
			}
		}
	}
	JOINT RightUpLeg
	{
		OFFSET	-0.124023	-0.008373	-0.065224
		CHANNELS 3 Zrotation Xrotation Yrotation
		JOINT RightLeg
		{
			OFFSET	 0.000000	 0.000000	 0.570047
			CHANNELS 3 Zrotation Xrotation Yrotation
			JOINT RightFoot
			{
				OFFSET	 0.000000	 0.000000	 0.544354
				CHANNELS 3 Zrotation Xrotation Yrotation
				JOINT RightToeBase
				{
					OFFSET	 0.000000	 0.000000	 0.207540
					CHANNELS 3 Zrotation Xrotation Yrotation
					End Site
					{
						OFFSET	 0.000000	 0.000000	 0.207540
					}
				}
			}
		}
	}
	JOINT Spine
	{
		OFFSET	 0.000184	-0.007763	 0.117403
		CHANNELS 3 Zrotation Xrotation Yrotation
		JOINT Spine1
		{
			OFFSET	 0.000000	 0.000000	 0.137269
			CHANNELS 3 Zrotation Xrotation Yrotation
			JOINT Spine2
			{
				OFFSET	 0.000000	 0.000000	 0.156879
				CHANNELS 3 Zrotation Xrotation Yrotation
				JOINT LeftShoulder
				{
					OFFSET	 0.080501	-0.002496	 0.160144
					CHANNELS 3 Zrotation Xrotation Yrotation
					JOINT LeftArm
					{
						OFFSET	 0.000000	 0.000000	 0.164363
						CHANNELS 3 Zrotation Xrotation Yrotation
						JOINT LeftForeArm
						{
							OFFSET	 0.000000	 0.000000	 0.364576
							CHANNELS 3 Zrotation Xrotation Yrotation
							JOINT LeftHand
							{
								OFFSET	 0.000000	 0.000000	 0.360812
								CHANNELS 3 Zrotation Xrotation Yrotation
								JOINT LeftHandIndex1
								{
									OFFSET	 0.000000	 0.000000	 0.086006
									CHANNELS 3 Zrotation Xrotation Yrotation
									JOINT LeftHandIndex2
									{
										OFFSET	 0.000000	 0.000000	 0.047236
										CHANNELS 3 Zrotation Xrotation Yrotation
										JOINT LeftHandIndex3
										{
											OFFSET	-0.004284	-0.000551	 0.038166
											CHANNELS 3 Zrotation Xrotation Yrotation
											End Site
											{
												OFFSET	-0.004284	-0.000551	 0.038166
											}
										}
									}
								}
							}
						}
					}
				}
				JOINT Neck
				{
					OFFSET	 0.000000	 0.000000	 0.176489
					CHANNELS 3 Zrotation Xrotation Yrotation
					JOINT Head
					{
						OFFSET	 0.000000	-0.001747	 0.077940
						CHANNELS 3 Zrotation Xrotation Yrotation
						End Site
						{
							OFFSET	 0.000000	-0.001747	 0.077940
						}
					}
				}
				JOINT RightShoulder
				{
					OFFSET	-0.080363	 0.000306	 0.159706
					CHANNELS 3 Zrotation Xrotation Yrotation
					JOINT RightArm
					{
						OFFSET	 0.000000	 0.000000	 0.164196
						CHANNELS 3 Zrotation Xrotation Yrotation
						JOINT RightForeArm
						{
							OFFSET	 0.000000	 0.000000	 0.365611
							CHANNELS 3 Zrotation Xrotation Yrotation
							JOINT RightHand
							{
								OFFSET	 0.000000	 0.000000	 0.360648
								CHANNELS 3 Zrotation Xrotation Yrotation
								JOINT RightHandIndex1
								{
									OFFSET	 0.000000	 0.000000	 0.069977
									CHANNELS 3 Zrotation Xrotation Yrotation
									JOINT RightHandIndex2
									{
										OFFSET	 0.000000	 0.000000	 0.052305
										CHANNELS 3 Zrotation Xrotation Yrotation
										JOINT RightHandIndex3
										{
											OFFSET	 0.009002	-0.000782	 0.042196
											CHANNELS 3 Zrotation Xrotation Yrotation
											End Site
											{
												OFFSET	 0.009002	-0.000782	 0.042196
											}
										}
									}
								}
							}
						}
					}
				}
			}
		}
	}
}
MOTION
Frames:    11
Frame Time: 0.03333334
-0.088258	 6.750763	 1.266898	-98.036420	 1.229733	 0.953691	-32.936180	-7.245397	-177.846300	 17.419700	-40.861630	 5.499415	-89.931630	 75.149160	 67.733580	-2.183724	 47.706990	-0.505600	 18.593750	-7.002479	-174.816900	-9.546889	-40.953970	-0.954783	 50.031680	 76.042330	-34.811840	 1.957696	 56.426420	 0.855551	 10.704940	 5.345206	 2.216630	-6.760903	 9.912316	-7.372161	 8.406304	-25.937950	 8.575718	-91.229320	 83.958310	 178.242600	 61.500120	 56.759530	-70.631530	-9.641983	 0.681646	-42.788530	 41.339780	 7.555944	-14.388200	-11.794420	 9.708629	-26.420510	-5.213937	-0.202400	 3.566957	-1.378229	 35.397820	-2.634230	-1.809319	 4.248389	 2.957180	-4.596788	-13.385990	-15.328400	 87.727230	 87.418960	-176.799200	-10.632350	 76.168070	-7.506898	 9.014661	-2.281797	 46.260230	-34.087180	-0.003528	 9.423615	-1.016801	 25.065430	-61.834690	 5.070519	-0.690904	-9.399550	-2.350882	 35.473990	 5.254307
-0.087559	 6.782786	 1.269142	-91.136060	 2.291854	 1.972800	-36.174740	-8.168710	 179.902000	 19.179680	-42.325300	 6.861078	-87.937120	 73.680210	 65.618260	-2.220632	 45.617660	-0.437990	 12.622730	-5.677766	-176.058000	-6.523403	-38.069690	 0.966389	 45.705450	 78.058940	-31.486290	 2.077587	 52.387960	 0.679088	 7.130501	 4.564695	 1.411552	-6.541713	 11.272750	-7.522227	 10.786080	-28.517710	 9.675172	-91.229220	 83.958270	 178.242500	 55.826810	 59.939700	-65.670010	-9.588387	 1.982243	-36.441750	 37.997390	 5.096663	-11.581940	-11.124310	 9.600565	-23.957490	-5.213937	-0.202400	 3.566957	-1.378229	 35.397820	-2.634230	 1.663078	 5.763286	-1.322134	-1.322701	-17.449010	-8.824981	 87.726970	 87.418960	-176.799000	-7.377867	 74.907370	-10.905810	 10.263150	-0.732643	 47.554370	-31.872420	-0.816460	 9.270175	-1.715260	 24.174090	-62.545000	 5.070519	-0.690904	-9.399550	-2.350882	 35.473990	 5.254307
-0.086661	 6.805718	 1.271196	-86.425300	 3.192159	 2.279265	-37.494430	-9.339886	 178.522600	 19.946140	-43.401880	 7.536120	-84.031710	 73.057530	 61.960030	-2.272918	 42.063890	-0.332407	 8.411434	-4.456995	-176.634900	-4.339801	-35.433370	 2.176499	 39.811930	 79.192800	-26.578070	 2.036900	 53.886870	 0.740921	 4.016685	 4.032310	 1.018338	-6.346421	 12.091160	-7.422516	 13.132870	-30.426090	 10.815120	-91.229160	 83.958340	 178.242500	 43.737030	 63.600080	-58.372570	-10.130950	 3.661358	-24.777580	 32.618260	 1.748435	-8.102387	-11.092830	 8.675178	-23.133090	-5.213937	-0.202400	 3.566957	-1.378229	 35.397820	-2.634230	 5.064872	 7.276731	-5.486966	 2.148133	-20.640400	-2.408273	 87.727080	 87.418820	-176.799000	-5.753145	 73.724320	-12.863250	 10.946890	 0.277968	 48.489690	-30.283760	-2.062230	 9.147588	-0.541371	 25.912180	-62.474200	 5.070519	-0.690904	-9.399550	-2.350882	 35.473990	 5.254307
-0.083088	 6.843016	 1.273086	-80.176070	 3.595136	 2.698197	-37.846490	-10.421260	 176.899800	 21.021670	-45.203320	 8.558372	-79.455210	 72.050700	 57.934750	-2.381118	 29.464300	-0.022009	 2.273530	-2.167390	-177.725300	-1.080949	-31.611160	 3.687351	 32.184670	 81.445900	-20.701470	 2.163893	 48.606020	 0.538572	-1.187131	 3.917647	 0.434848	-5.777017	 14.093410	-6.870598	 15.493750	-32.383340	 11.872530	-91.229260	 83.958340	 178.242600	 19.947680	 64.098880	-40.171470	-15.334950	 5.369906	-14.155710	 21.070680	-4.590216	-4.048440	-10.613280	 8.920245	-21.639070	-5.213937	-0.202400	 3.566957	-1.378229	 35.397820	-2.634230	 9.528118	 9.358829	-9.583899	 7.021141	-24.370320	 6.058889	 87.726980	 87.418890	-176.799000	-3.498651	 71.598160	-13.405390	 12.748260	 2.323157	 50.658520	-25.865540	-5.367122	 8.772491	-1.061446	 25.325960	-63.343040	 5.070519	-0.690904	-9.399550	-2.350882	 35.473990	 5.254307
-0.077901	 6.866466	 1.273829	-76.161540	 4.506020	 2.653963	-37.279050	-12.281110	 175.463300	 21.117640	-46.483200	 8.814231	-76.747410	 71.830430	 55.846630	-2.405903	 21.559000	 0.143136	-0.775368	-1.804551	-178.403500	 0.437564	-29.669120	 4.244950	 26.819690	 83.422670	-16.019190	 2.250125	 43.574570	 0.378054	-5.044559	 3.646588	 0.020973	-5.592484	 14.804450	-6.321033	 16.206230	-33.225240	 11.949800	-91.229270	 83.958270	 178.242600	 6.908190	 62.404310	-27.701060	-18.662930	 5.787061	-14.581270	 13.913820	-9.875753	-2.500354	-10.181180	 9.046000	-20.202930	-5.213937	-0.202400	 3.566957	-1.378229	 35.397820	-2.634230	 11.776790	 10.327750	-11.267070	 9.494689	-25.420680	 10.319320	 87.726860	 87.418820	-176.798800	 0.163726	 70.205730	-15.134800	 13.352510	 3.194402	 52.627990	-22.533330	-8.576280	 8.252415	-0.482743	 26.245170	-63.731420	 5.070519	-0.690904	-9.399550	-2.350882	 35.473990	 5.254307
-0.073430	 6.887960	 1.273577	-72.326790	 5.090851	 2.547244	-34.188910	-14.395650	 174.140600	 19.752470	-47.777140	 7.968874	-76.787960	 73.032660	 56.555750	-2.370235	 31.475140	-0.066761	-2.902203	-1.163411	-179.000200	 1.413581	-27.834770	 4.469733	 25.423150	 85.654540	-15.035640	 2.322980	 37.436310	 0.210674	-8.977225	 3.872653	-0.297789	-5.402177	 15.230180	-6.282295	 16.944450	-33.672020	 12.271220	-91.229310	 83.958370	 178.242600	-2.666004	 59.718820	-18.559430	-20.672640	 6.123583	-14.917110	 8.451476	-15.327600	-1.723122	-10.067930	 8.945881	-19.735120	-5.213937	-0.202400	 3.566957	-1.378229	 35.397820	-2.634230	 13.514510	 11.004120	-12.199810	 11.312090	-25.838320	 13.600760	 87.726970	 87.419040	-176.798900	 1.815718	 68.842080	-14.870060	 14.418730	 4.434507	 55.002270	-18.801510	-11.952880	 8.163695	-0.281942	 26.587070	-64.018760	 5.070519	-0.690904	-9.399550	-2.350882	 35.473990	 5.254307
-0.067979	 6.914728	 1.272223	-67.738900	 5.791005	 2.836388	-30.332110	-17.039570	 172.546000	 18.143060	-49.384090	 6.928574	-77.315700	 74.558660	 57.778880	-2.357775	 33.406900	-0.111131	-7.077420	-0.593089	-179.877200	 3.122190	-25.603500	 4.896285	 11.924800	 86.332050	-2.848085	 2.339451	 35.589370	 0.164805	-13.882810	 4.258204	-1.330512	-4.817376	 15.448080	-5.786727	 16.424110	-33.976030	 11.415680	-91.229170	 83.958370	 178.242500	-9.989000	 55.723010	-11.004760	-21.381170	 6.446868	-15.239620	 3.736850	-21.757150	-1.541239	-10.555000	 7.674299	-20.586440	-5.213937	-0.202400	 3.566957	-1.378229	 35.397820	-2.634230	 14.740820	 11.312940	-12.583990	 12.620860	-25.659690	 16.666740	 87.727070	 87.418820	-176.799000	 2.814060	 67.019600	-13.156910	 15.302910	 5.702084	 58.384160	-14.250100	-16.654580	 8.450275	-0.714692	 26.023090	-64.300540	 5.070519	-0.690904	-9.399550	-2.350882	 35.473990	 5.254307
-0.062197	 6.939432	 1.270529	-64.022590	 6.204699	 2.784021	-25.513230	-19.416610	 172.293800	 16.754930	-50.225510	 5.938003	-75.777740	 75.987940	 56.587340	-2.385718	 28.478420	-0.000554	-10.834790	-0.721916	 179.214200	 5.436181	-24.704200	 5.744346	-9.148996	 87.424960	 16.426190	 2.378446	 29.701700	 0.028659	-18.214080	 4.683434	-1.485126	-4.020117	 15.818730	-6.645712	 16.420320	-33.906240	 11.948930	-91.229320	 83.958310	 178.242600	-14.344610	 52.700780	-6.029245	-20.573620	 6.641846	-15.436740	 0.323837	-27.451730	-1.934515	-10.793670	 6.645804	-20.723220	-5.213937	-0.202400	 3.566957	-1.378229	 35.397820	-2.634230	 15.491480	 11.982220	-12.468050	 13.414940	-26.152840	 18.744210	 87.726980	 87.418960	-176.798900	 4.207642	 65.823460	-11.615690	 15.119070	 5.899891	 60.893150	-10.575180	-21.715890	 9.022346	-1.137303	 25.338930	-63.925850	 5.070519	-0.690904	-9.399550	-2.350882	 35.473990	 5.254307
-0.058105	 6.959118	 1.268908	-60.330320	 6.343397	 2.536094	-22.483990	-20.931300	 172.788300	 15.475640	-50.502350	 4.968336	-74.185690	 77.015070	 55.305060	-2.408403	 19.144210	 0.191125	-14.839880	-0.997014	 178.478200	 7.519741	-24.716900	 6.663400	-68.708110	 87.668880	 74.676190	 2.400293	 23.774750	-0.097036	-21.443950	 5.139236	-1.653322	-3.359438	 16.191250	-6.299646	 14.768490	-34.718610	 10.868490	-91.229290	 83.958370	 178.242600	-14.725310	 51.508260	-3.701957	-19.516540	 6.701397	-15.505170	-1.391158	-31.154340	-2.915400	-10.138270	 6.875873	-18.686610	-5.213937	-0.202400	 3.566957	-1.378229	 35.397820	-2.634230	 15.616830	 12.142490	-13.397690	 13.613350	-26.565340	 19.976610	 87.726900	 87.419040	-176.798900	 4.120434	 65.031650	-9.911886	 15.365850	 6.369902	 62.917370	-6.827547	-25.804160	 10.064920	-2.057548	 24.010550	-63.988330	 5.070519	-0.690904	-9.399550	-2.350882	 35.473990	 5.254307
-0.052838	 6.981170	 1.266876	-55.234450	 6.538783	 1.710986	-17.296140	-23.074630	 174.035100	 12.704930	-50.280500	 2.812288	-72.056770	 79.408740	 53.565490	-2.369686	 31.567240	-0.068844	-18.868150	-2.409389	 178.096700	 9.681546	-26.843840	 8.235580	-110.421500	 86.494580	 115.177500	 2.407244	 19.045320	-0.191986	-24.764120	 5.756048	-1.122571	-2.725907	 16.146900	-6.164188	 13.192600	-35.026170	 10.174020	-91.229330	 83.958310	 178.242600	-13.454250	 50.702770	-3.332344	-18.978250	 6.647421	-15.456890	-3.166022	-34.727360	-4.874062	-9.448387	 9.173156	-17.674410	-5.213937	-0.202400	 3.566957	-1.378229	 35.397820	-2.634230	 15.323020	 12.071900	-13.749750	 13.346120	-26.731370	 20.638840	 87.726590	 87.418890	-176.798600	 5.315291	 65.172450	-9.824592	 14.785810	 5.716760	 64.119880	-3.498215	-30.289950	 11.484000	-1.680825	 24.236510	-62.589250	 5.070519	-0.690904	-9.399550	-2.350882	 35.473990	 5.254307
-0.049274	 7.000038	 1.264663	-49.860970	 6.565217	 1.244260	-11.366600	-24.750830	 175.446000	 8.990863	-50.872760	-0.044335	-74.360600	 82.743340	 56.537860	-2.344563	 35.169320	-0.152953	-23.347200	-3.391106	 177.580400	 11.769930	-28.781120	 9.865685	-133.790700	 84.473590	 137.450900	 2.406887	 15.339600	-0.264274	-27.551270	 5.979569	-1.119622	-2.218485	 16.382820	-5.180843	 11.571420	-34.903050	 8.939260	-91.229290	 83.958340	 178.242600	-11.201720	 51.487930	-4.517331	-17.979120	 6.451523	-15.273720	-4.467570	-37.032300	-7.076112	-9.755612	 9.106533	-18.730770	-5.213937	-0.202400	 3.566957	-1.378229	 35.397820	-2.634230	 15.051450	 12.359800	-13.843960	 13.245400	-27.195010	 21.686630	 87.726720	 87.418960	-176.798700	 3.102539	 65.470570	-7.321459	 15.141640	 5.863928	 64.347700	 0.147795	-32.955560	 13.819850	-2.342159	 23.396580	-63.213950	 5.070519	-0.690904	-9.399550	-2.350882	 35.473990	 5.254307
